<?xml version="1.0" standalone="no"?><!DOCTYPE svg PUBLIC "-//W3C//DTD SVG 1.1//EN" "http://www.w3.org/Graphics/SVG/1.1/DTD/svg11.dtd">
<svg class="icon" style="width: 1em;height: 1em;vertical-align: middle;fill: currentColor;overflow: hidden;width: 13px;" viewBox="0 0 1024 1024" version="1.1" 
	xmlns="http://www.w3.org/2000/svg" p-id="9631">
	<path d="M511.469 10.987c-276.404 0-500.482 224.073-500.482 500.482 0 276.416 224.079 500.489 500.482 500.489 276.416 0 500.489-224.073 500.489-500.489C1011.958 235.06 787.885 10.987 511.469 10.987zM90.498 511.469c0-103.05 37.048-197.435 98.514-270.606l593.078 593.064c-73.179 61.479-167.563 98.526-270.62 98.526C278.973 932.454 90.498 743.973 90.498 511.469zM833.934 782.076 240.863 189.019c73.177-61.479 167.563-98.527 270.606-98.527 232.504 0 420.984 188.481 420.984 420.978C932.454 614.518 895.406 708.899 833.934 782.076z" p-id="9632"></path>
</svg>
