<?xml version="1.0" standalone="no"?>
<svg class="icon" style="" viewBox="0 0 1024 1024" version="1.1" xmlns="http://www.w3.org/2000/svg"
     width="20" height="20">
	<path d="M435.2 460.8h-307.2c-15.36 0-25.6-10.24-25.6-25.6v-307.2c0-15.36 10.24-25.6 25.6-25.6h307.2c15.36 0 25.6 10.24 25.6 25.6v307.2c0 15.36-10.24 25.6-25.6 25.6zM153.6 409.6h256V153.6H153.6v256zM896 460.8h-307.2c-15.36 0-25.6-10.24-25.6-25.6v-307.2c0-15.36 10.24-25.6 25.6-25.6h307.2c15.36 0 25.6 10.24 25.6 25.6v307.2c0 15.36-10.24 25.6-25.6 25.6zM614.4 409.6h256V153.6h-256v256zM435.2 921.6h-307.2c-15.36 0-25.6-10.24-25.6-25.6v-307.2c0-15.36 10.24-25.6 25.6-25.6h307.2c15.36 0 25.6 10.24 25.6 25.6v307.2c0 15.36-10.24 25.6-25.6 25.6zM153.6 870.4h256v-256H153.6v256zM896 921.6h-307.2c-15.36 0-25.6-10.24-25.6-25.6v-307.2c0-15.36 10.24-25.6 25.6-25.6h307.2c15.36 0 25.6 10.24 25.6 25.6v307.2c0 15.36-10.24 25.6-25.6 25.6zM614.4 870.4h256v-256h-256v256z"
	></path>
</svg>