<?xml version="1.0" standalone="no"?><!DOCTYPE svg PUBLIC "-//W3C//DTD SVG 1.1//EN" "http://www.w3.org/Graphics/SVG/1.1/DTD/svg11.dtd">
<svg t="1551344212779" class="icon" style="" viewBox="0 0 1024 1024" version="1.1" 
	xmlns="http://www.w3.org/2000/svg" p-id="2309" 
	xmlns:xlink="http://www.w3.org/1999/xlink" width="16" height="16">
	<defs>
		<style type="text/css"></style>
	</defs>
	<path d="M796.444 455.111c-11.377-159.289-147.91-284.444-312.888-284.444S187.733 295.822 170.666 455.11C73.957 466.49 0 551.822 0 654.222c0 108.09 91.022 199.111 199.111 199.111h28.445v-56.889H199.11c-79.644 0-142.222-62.577-142.222-142.222 0-73.955 51.2-130.844 125.155-142.222l45.512-5.689V460.8c11.377-130.844 125.155-233.244 256-233.244s244.622 102.4 256 233.244l5.688 45.511L785.067 512c68.266 11.378 125.155 68.267 125.155 142.222 0 79.645-62.578 142.222-142.222 142.222h-28.444v56.89H768c108.089 0 199.111-91.023 199.111-199.112 0-102.4-73.955-182.044-170.667-199.11z" p-id="2310"></path>
	<path d="M688.356 711.111l-39.823-39.822L512 807.822v-409.6h-56.889v403.911L324.267 671.29l-39.823 39.822 199.112 199.111z" p-id="2311"></path>
</svg>
