<?xml version="1.0" standalone="no"?><!DOCTYPE svg PUBLIC "-//W3C//DTD SVG 1.1//EN" "http://www.w3.org/Graphics/SVG/1.1/DTD/svg11.dtd">
<svg t="1551153596645" class="icon" style="" viewBox="0 0 1024 1024" version="1.1" 
	xmlns="http://www.w3.org/2000/svg" p-id="13182" 
	xmlns:xlink="http://www.w3.org/1999/xlink" width="200" height="200">
	<defs>
		<style type="text/css"></style>
	</defs>
	<path d="M854.080517 385.907187 740.113883 385.907187 740.113883 290.939255c0-60.938907-23.726378-118.226658-66.802452-161.307849-43.081191-43.081191-100.368942-66.802452-161.313989-66.802452-60.940954 0-118.228705 23.721261-161.308873 66.802452-43.081191 43.081191-66.802452 100.368942-66.802452 161.307849l0 94.967932L169.914366 385.907187c-10.527774 0-19.060101 8.540514-19.060101 19.064194l0 532.137643c0 10.518564 8.532327 19.060101 19.060101 19.060101l684.166151 0c10.532891 0 19.064194-8.541537 19.064194-19.060101L873.144712 404.971381C873.144712 394.4477 864.613408 385.907187 854.080517 385.907187L854.080517 385.907187zM316.552098 292.304346c0-52.220339 20.326954-101.302197 57.240679-138.213875 36.902468-36.907585 85.990466-57.231469 138.204665-57.231469 52.219315 0 101.30629 20.323884 138.209782 57.231469 36.912701 36.911678 57.241702 85.993536 57.241702 138.213875l0 93.602841L316.552098 385.907187 316.552098 292.304346 316.552098 292.304346 316.552098 292.304346zM840.821539 922.480862 183.177438 922.480862 183.177438 419.594427l657.644101 0L840.821539 922.480862 840.821539 922.480862zM835.020416 918.04483" p-id="13183"></path>
	<path d="M569.012993 633.022331c0 16.83134-7.42204 31.798217-19.004843 42.222637l0 52.804646c0 20.99722-17.022699 38.018895-38.010709 38.018895-20.983917 0-38.004569-17.022699-38.004569-38.018895l0-52.804646c-11.584849-10.42442-19.006889-25.391297-19.006889-42.222637 0-31.488155 25.521257-57.010435 57.011458-57.010435C543.4989 576.011896 569.012993 601.533153 569.012993 633.022331L569.012993 633.022331zM569.012993 633.022331" p-id="13184"></path>
</svg>
