<?xml version="1.0" standalone="no"?><!DOCTYPE svg PUBLIC "-//W3C//DTD SVG 1.1//EN" "http://www.w3.org/Graphics/SVG/1.1/DTD/svg11.dtd">
<svg t="1551154133258" class="icon" style="" viewBox="0 0 1024 1024" version="1.1" 
	xmlns="http://www.w3.org/2000/svg" p-id="16225" 
	xmlns:xlink="http://www.w3.org/1999/xlink" width="200" height="200">
	<defs>
		<style type="text/css"></style>
	</defs>
	<path d="M778.666667 614.4c-64 0-119.466667 34.133333-149.333334 85.333333L405.333333 590.933333c10.666667-21.333333 14.933333-46.933333 14.933334-72.533333 0-23.466667-4.266667-44.8-12.8-64l228.266666-117.333333c32 42.666667 83.2 72.533333 140.8 72.533333 96 0 174.933333-78.933333 174.933334-174.933333 0-96-78.933333-174.933333-174.933334-174.933334-96 0-174.933333 78.933333-174.933333 174.933334 0 19.2 2.133333 36.266667 8.533333 53.333333L377.6 405.333333c-32-38.4-78.933333-61.866667-132.266667-61.866666-96 0-174.933333 78.933333-174.933333 174.933333 0 96 78.933333 174.933333 174.933333 174.933333 51.2 0 96-21.333333 128-55.466666l234.666667 113.066666c-2.133333 12.8-4.266667 25.6-4.266667 38.4 0 96 78.933333 174.933333 174.933334 174.933334 96 0 174.933333-78.933333 174.933333-174.933334 2.133333-96-76.8-174.933333-174.933333-174.933333z m-2.133334-499.2c64 0 117.333333 53.333333 117.333334 117.333333s-53.333333 117.333333-117.333334 117.333334-117.333333-53.333333-117.333333-117.333334 53.333333-117.333333 117.333333-117.333333zM245.333333 637.866667c-64 0-117.333333-53.333333-117.333333-117.333334s53.333333-117.333333 117.333333-117.333333 117.333333 53.333333 117.333334 117.333333-53.333333 117.333333-117.333334 117.333334z m533.333334 270.933333c-64 0-117.333333-53.333333-117.333334-117.333333s53.333333-117.333333 117.333334-117.333334 117.333333 53.333333 117.333333 117.333334-51.2 117.333333-117.333333 117.333333z" p-id="16226"></path>
</svg>
