<?xml version="1.0" standalone="no"?><!DOCTYPE svg PUBLIC "-//W3C//DTD SVG 1.1//EN" "http://www.w3.org/Graphics/SVG/1.1/DTD/svg11.dtd">
<svg t="1551184927816" class="icon" style="" viewBox="0 0 1024 1024" version="1.1" 
	xmlns="http://www.w3.org/2000/svg" p-id="2876" 
	xmlns:xlink="http://www.w3.org/1999/xlink" width="200" height="200">
	<defs>
		<style type="text/css"></style>
	</defs>
	<path d="M460.8 493.381818c32.581818-34.909091 51.2-81.454545 51.2-132.654545 0-109.381818-88.436364-197.818182-197.818182-197.818182H46.545455c-25.6 0-46.545455 20.945455-46.545455 46.545454v605.09091c0 25.6 20.945455 46.545455 46.545455 46.545454h314.181818c109.381818 0 197.818182-88.436364 197.818182-197.818182 0-72.145455-39.563636-134.981818-97.745455-169.890909zM93.090909 256h221.090909c58.181818 0 104.727273 46.545455 104.727273 104.727273s-46.545455 104.727273-104.727273 104.727272h-221.090909v-209.454545z m267.636364 512H93.090909v-209.454545h267.636364c58.181818 0 104.727273 46.545455 104.727272 104.727272s-46.545455 104.727273-104.727272 104.727273zM977.454545 162.909091h-372.363636c-25.6 0-46.545455 20.945455-46.545454 46.545454s20.945455 46.545455 46.545454 46.545455h139.636364v558.545455c0 25.6 20.945455 46.545455 46.545454 46.545454s46.545455-20.945455 46.545455-46.545454v-558.545455h139.636363c25.6 0 46.545455-20.945455 46.545455-46.545455s-20.945455-46.545455-46.545455-46.545454z" p-id="2877"></path>
</svg>
