<?xml version="1.0" standalone="no"?><!DOCTYPE svg PUBLIC "-//W3C//DTD SVG 1.1//EN" "http://www.w3.org/Graphics/SVG/1.1/DTD/svg11.dtd">
<svg t="1551149132385" class="icon" style="" viewBox="0 0 1024 1024" version="1.1" 
	xmlns="http://www.w3.org/2000/svg" p-id="3502" 
	xmlns:xlink="http://www.w3.org/1999/xlink" width="200" height="200">
	<defs>
		<style type="text/css"></style>
	</defs>
	<path d="M912.041092 266.361487c-13.920034 0-28.373211 5.804193-42.963511 17.262152L723.664747 397.812331 723.664747 239.393275c0-31.529087-25.648147-57.178257-57.178257-57.178257L121.273041 182.215018c-31.530111 0-57.178257 25.64917-57.178257 57.178257l0 545.213449c0 31.530111 25.648147 57.178257 57.178257 57.178257l545.213449 0c31.530111 0 57.178257-25.648147 57.178257-57.178257l0-158.418033 145.413857 114.187669c14.589276 11.452843 29.043477 17.262152 42.963511 17.262152 0.00614 0 0.00614 0 0.00614 0 14.94334 0 27.929096-6.827499 36.57194-19.2269 7.491625-10.744715 11.285021-24.940019 11.285021-42.195008L959.905216 327.784418C959.905216 282.445814 934.12097 266.361487 912.041092 266.361487zM684.090427 784.606725c0 9.707083-7.896854 17.603937-17.603937 17.603937L121.273041 802.210661c-9.707083 0-17.603937-7.895831-17.603937-17.603937L103.669104 239.393275c0-9.707083 7.896854-17.603937 17.603937-17.603937l545.213449 0c9.707083 0 17.603937 7.896854 17.603937 17.603937l0 189.496865 0 9.623171 0 146.973376 0 9.623171L684.090427 784.606725zM920.330896 696.216605c0 12.251022-2.924609 17.763572-4.180206 19.567661-1.351787 1.938142-2.4017 2.279926-4.102435 2.279926-1.713015 0-8.116865-0.63752-18.531052-8.81169L723.664747 575.863517 723.664747 448.136483l169.852456-133.388986c10.414187-8.18031 16.818037-8.81169 18.524912-8.81169 6.544043 0 8.289804 13.731746 8.289804 21.848611L920.331919 696.216605z" p-id="3503"></path>
</svg>
